/* XPM */
static char *pwrdLogo75[] = {
/* width height ncolors chars_per_pixel */
"48 75 42 1",
/* colors */
"  c #996633",
". c gray60",
"X c #CC6633",
"o c #333366",
"O c #CC9999",
"+ c #FFFF99",
"@ c #3366CC",
"# c #CCCCFF",
"$ c #663366",
"% c #FF9999",
"& c #6666CC",
"* c #99CCCC",
"= c #CC6600",
"- c #FFCC00",
"; c #993366",
": c #CC9966",
"> c #336699",
", c gray80",
"< c #663333",
"1 c #FF9966",
"2 c #666699",
"3 c #FFCCCC",
"4 c #993333",
"5 c #996699",
"6 c #CCFFFF",
"7 c #CC3333",
"8 c #FFCC99",
"9 c #6699CC",
"0 c white",
"q c #993300",
"w c #CC9900",
"e c yellow",
"r c #996666",
"t c #003399",
"y c #9999CC",
"u c #CC3300",
"i c #FF9900",
"p c #CC6666",
"a c #333399",
"s c #CC99CC",
"d c #FFFFCC",
"f c None",
/* pixels */
"+++++++++++++++++++++++::pXXX+++++++++++++++++++",
"+++++::pXXXXuuuuuuuuuuuuuuuuuuu:++++++++++++++++",
"++++:uuuuuuuuuw=uuuw-=uuuuuuuuuuuX:pXXXXuuuuup++",
"++++:uuuuuuuui-uuu=e-wuuuuuuuuuuuuuuuuuuuuuuu:++",
"++++1uuuuuuuue=uuueiuuuuuuuuuuuuuuuuuuuuuuuuu1++",
"+++++uuuuuuuueuuui-uuuuuuuuuuuuuuuuuuuuuuuuuu+++",
"+++++uuuuuuuu-uuue=uuuuuuuuuXuuuuuuuuuuuuuuuu+++",
"+++++uuuuuuuuiuuwiuuuuuuuuX300puuuuuuuuuuuuuu+++",
"+++++uuuuuuuu=uu-=uuuuuuup06y9,uuuuuuuuuuuuuu+++",
"+++++uuuuuuuu=uu-uuuuuuup0ytttapuuuuuuuuuuuuu+++",
"+++++uuuuuuuuuuwiuuuuuuX0&ttttt$uuuuuuuuuuuuu+++",
"+++++uuuuuuuuuui=uuuuuud@tttttouuuuuuuuuuuuuu+++",
"+++++uuuuuuuuuu-uuuuuu39ttttttquuuuuuuuu=uuuX+++",
"+++++uuuuuuuuuu-uuuuuX*tttttt<uuuuui-=uui-uuX+++",
"+++++uuuuuuuuu=-uuuuu3ttttttouuuuuu=ewuuueuu4tt9",
"+++++uuuuuuuuu=iuuuuX9ttttttquuuuuu=e=uuu-uu<tt+",
"+++++uuuuuuuuu=wuuuu8tttttt<uup%uuu=euuu==uu<tt+",
"+++++uuuuuuuuu==uuuu*tttttt4$9*0Xuuw-uuuuuuu$tt+",
"+++++uuuuuuuuu==uuuX&tttttttttt,:uu-=uuuuuuu$t>+",
"+++++7uuuuuuuuuuuuu:>ttttttttto3:uu-uuuuuuuuot&+",
"+++++XuuuuuuuuuuuuuOtttttttttt$0Xu=iuuuuuuuuot++",
"+++++Xuuuuuuuuuuuuu.ttttttttttr0uuiuuuuuuuuuat++",
"+++++Xuuuuuuuuuuuuu5tttttttttt:3uuwuuuuuuuuutt++",
"+++++Xuuuuuuuuuuuuurttttttttto3Xu=uuuuuuuuuutt++",
"+++++Xuuuuuuuuuuuuu;ttttatttt$3uuuuuuuuuuuuqt>++",
"+++++puuuuuuuuuuuuu4ttto>ttttOXuuuuuuuuuuuu4t9++",
"+++++:uuuuuuuuuuuuu4tttrttttt:uuuuuuuuuuuuu4t+++",
"+++++:uuuuuuuuuuupuutto.tttt$uuuuuuuuuuuuuu4t+++",
"+++++1uuuuuuuuuuu%34tt<ytttouuuuuuuuuuuuuuu<t+++",
"+++++:uuuuuuuuuuu%#9tt4yttt4uuuuuuuuuuuuuuu$a+++",
"+++++:uuuuuuuuuuu%yttt4yttt$,%uuuuuuuuuuuuu$@+++",
"+++++puuuuuuuuuuu%9tttXyttttypuuuuuuuuuuuuuo9+++",
"+++++puuuuuuuuuuu1&ttap9tttt,Xuuuuuuuuuuuuu$++++",
"+++++ruuuuuuuuuuu:2tto:9ttttduuuuuuuuuuuuuu$++++",
"+++++ uuuuuuuuuuup5ttoO&ttta3uuuuuuuuuuuuuu$++++",
"+++++ uuuuuuuuuuuX.tt$O&ttto3uuuuuuuuuuuuuur++++",
"+++++4uuuuuuuuuuuuOtt$8@ttt$3uuuuuuuuuuuuuup++++",
"+++++4uuuuuuuuuuuuOtt<,@ttt<8uuuuuuuuuuuuuup++++",
"+++++4uuuuuuuuuuuu:tt<,@ttt4%uuuuuuuuuuuuuuX++++",
"+++++4uuuuuuuuuuuu:ot<,@ttt7:uuuuuuuuuuuuuuX++++",
"+++++4uuuuuuuuuuuuXot$,@ttt:uuuuuuuuuuuuuuuX++++",
"+++++quuuuuuuuuuuuu2t$,@tt$XuuuuuuuuuuuuuuuX++++",
"++++9quuuuuuuuuuuuurt$s&tt4:3uuuuuuuuuuuuuuu++++",
"++++&uuuuuuuuuuuuuu4toO&tou53uuuuuuuuuuuuuuu++++",
"++++>uuuuuuuuuuuuuuqtoO9tttt8uuuuuuuuuuuuuuu++++",
"++++tuuuuuuuuuuuuX3ptaO9ttta%uuuuuuuuuuuuuuu++++",
"++++tuuuuuuuuuuuuu3&ttpyttt2puuuuuuuuuuuuuuu++++",
"++++tuuuuuuuuuuuuup@ttryttt.uuuuuuuuuuuuuuuu++++",
"++++auuuuuuuuuuuuuuOtt4,tttOuuuuuuuuuuuuuuuu++++",
"++++auuuuuuuuuuuuuuu.t<,tt2Xuuuuuuuuuuuuuuuu++++",
"+++9auuuuuuuuuuuuuuuu2$3ttXuuuuuuuuuuuuuuuuu++++",
"+++@ouuuuuuuuuuuuuuuuu<%aouuuuuuuuuuuuuuuuuu++++",
"+++aouuuuuuuuuuuuuuuuuu:puuuuuuuuuuuuuuuuuuu++++",
"+++touuuuuuuuuuuuup%uuuX:uuuuuuuuuuuuuuuuuuu++++",
"+++touuu7XuuuuuuuuX%uuu7%uuuuuuuuuuuuuuuuuuu1+++",
"+++touuu:8uuu7XuuuX%uuuu%uuuuuuuuuuuuuuuuuuu:+++",
"+++t$uuuX%uuX%u8uuX%uuuu%uuuuuuuuuuuuuuuuuuu:+++",
"++9t$uuuX%uu::uuuuX%uuuu:Xuuuuuuuuuuuuuuuuuup+++",
"++&t<uuuX%uuX%uXuuX%uuuuX:uuuuuuuuuuuuuuuuuuX+++",
"++>t<uuuu1XuupXXuuX:uuuuu%uuuuuuuuuuuuuuuuuuX+++",
"++tt<uuuuuuuuuuuuuuuuuuuupuuuuuuuuuuuuuuuuuuX+++",
"++tt<uuuuuuuuuuuuuuuuuuuuuuuuuuuuuuuuuuuuuuuX+++",
"++tt<uuuuuuuu444<$ooooo$$$<<<44444444uuuuuuuu+++",
"++tt$<$ooattttttttttttttttttttttttttttttt9++++++",
"++ttttttttttttttttttttttttttttttttttttttt9++++++",
"+9ttttttttttttttttttttttttttttttttttttttt9++++++",
"+@tttt&ttta9ttt>t>>ttt&ttt&>tt>&ttt&>tttt+++++++",
"+>ttt@*9tty>ytt99*ytt@yttt,ytt99ttty*tttt+++++++",
"+tttt@yttt*>*ttt6y9tt@9ttt69tt99ttty*tttt+++++++",
"+tttta>ttt>9attt&>atta9ttt@&tt>9ttt9>tttt+++++++",
"+tttttttttttttttttttttttttttttttttttttttt+++++++",
"++++++++++++++++9&>tttttttttttttttttttttt+++++++",
"++++++++++++++++++++++++9@>tttttttttttttt+++++++",
"+++++++++++++++++++++++++++++++9&@atttttt+++++++",
"+++++++++++++++++++++++++++++++++++++++9&+++++++"
};
